<mxfile host="app.diagrams.net" agent="Mozilla/5.0 (Windows NT 10.0; Win64; x64) AppleWebKit/537.36 (KHTML, like Gecko) Chrome/131.0.0.0 Safari/537.36" version="25.0.3" pages="2">
  <diagram name="Page-1" id="12K9KRifmmOKmLysIfns">
    <mxGraphModel dx="3827" dy="2783" grid="1" gridSize="10" guides="1" tooltips="1" connect="1" arrows="1" fold="1" page="1" pageScale="1" pageWidth="827" pageHeight="1169" math="0" shadow="0">
      <root>
        <mxCell id="0" />
        <mxCell id="1" parent="0" />
        <mxCell id="3ZcGKBEtEyjRyk-508pL-1" value="User" style="swimlane;fontStyle=2;align=center;verticalAlign=top;childLayout=stackLayout;horizontal=1;startSize=26;horizontalStack=0;resizeParent=1;resizeLast=0;collapsible=1;marginBottom=0;rounded=0;shadow=0;strokeWidth=1;" vertex="1" parent="1">
          <mxGeometry x="100" y="790" width="220" height="176" as="geometry">
            <mxRectangle x="200" y="60" width="160" height="26" as="alternateBounds" />
          </mxGeometry>
        </mxCell>
        <mxCell id="3ZcGKBEtEyjRyk-508pL-2" value="-userID: integer" style="text;align=left;verticalAlign=top;spacingLeft=4;spacingRight=4;overflow=hidden;rotatable=0;points=[[0,0.5],[1,0.5]];portConstraint=eastwest;rounded=0;shadow=0;html=0;" vertex="1" parent="3ZcGKBEtEyjRyk-508pL-1">
          <mxGeometry y="26" width="220" height="26" as="geometry" />
        </mxCell>
        <mxCell id="3ZcGKBEtEyjRyk-508pL-3" value="-username: string" style="text;align=left;verticalAlign=top;spacingLeft=4;spacingRight=4;overflow=hidden;rotatable=0;points=[[0,0.5],[1,0.5]];portConstraint=eastwest;" vertex="1" parent="3ZcGKBEtEyjRyk-508pL-1">
          <mxGeometry y="52" width="220" height="26" as="geometry" />
        </mxCell>
        <mxCell id="3ZcGKBEtEyjRyk-508pL-4" value="-email: string" style="text;align=left;verticalAlign=top;spacingLeft=4;spacingRight=4;overflow=hidden;rotatable=0;points=[[0,0.5],[1,0.5]];portConstraint=eastwest;rounded=0;shadow=0;html=0;" vertex="1" parent="3ZcGKBEtEyjRyk-508pL-1">
          <mxGeometry y="78" width="220" height="26" as="geometry" />
        </mxCell>
        <mxCell id="3ZcGKBEtEyjRyk-508pL-5" value="-phoneNumber: string" style="text;align=left;verticalAlign=top;spacingLeft=4;spacingRight=4;overflow=hidden;rotatable=0;points=[[0,0.5],[1,0.5]];portConstraint=eastwest;rounded=0;shadow=0;html=0;" vertex="1" parent="3ZcGKBEtEyjRyk-508pL-1">
          <mxGeometry y="104" width="220" height="26" as="geometry" />
        </mxCell>
        <mxCell id="3ZcGKBEtEyjRyk-508pL-6" value="-hashPassword: string" style="text;align=left;verticalAlign=top;spacingLeft=4;spacingRight=4;overflow=hidden;rotatable=0;points=[[0,0.5],[1,0.5]];portConstraint=eastwest;rounded=0;shadow=0;html=0;" vertex="1" parent="3ZcGKBEtEyjRyk-508pL-1">
          <mxGeometry y="130" width="220" height="26" as="geometry" />
        </mxCell>
        <mxCell id="3ZcGKBEtEyjRyk-508pL-7" value="" style="line;html=1;strokeWidth=1;align=left;verticalAlign=middle;spacingTop=-1;spacingLeft=3;spacingRight=3;rotatable=0;labelPosition=right;points=[];portConstraint=eastwest;" vertex="1" parent="3ZcGKBEtEyjRyk-508pL-1">
          <mxGeometry y="156" width="220" height="20" as="geometry" />
        </mxCell>
        <mxCell id="3ZcGKBEtEyjRyk-508pL-8" value="" style="endArrow=block;endSize=10;endFill=0;shadow=0;strokeWidth=1;rounded=0;edgeStyle=elbowEdgeStyle;elbow=vertical;entryX=0.5;entryY=1;entryDx=0;entryDy=0;" edge="1" parent="1" source="p31LB3DIuPgvged_EPHS-48" target="3ZcGKBEtEyjRyk-508pL-1">
          <mxGeometry width="160" relative="1" as="geometry">
            <mxPoint x="80" y="1020" as="sourcePoint" />
            <mxPoint x="200" y="1020" as="targetPoint" />
            <Array as="points">
              <mxPoint x="160" y="1030" />
            </Array>
          </mxGeometry>
        </mxCell>
        <mxCell id="3ZcGKBEtEyjRyk-508pL-13" style="edgeStyle=orthogonalEdgeStyle;rounded=0;orthogonalLoop=1;jettySize=auto;html=1;exitX=0.5;exitY=1;exitDx=0;exitDy=0;entryX=0.5;entryY=0;entryDx=0;entryDy=0;" edge="1" parent="1" source="3ZcGKBEtEyjRyk-508pL-14" target="3ZcGKBEtEyjRyk-508pL-71">
          <mxGeometry relative="1" as="geometry" />
        </mxCell>
        <mxCell id="3ZcGKBEtEyjRyk-508pL-14" value="Client" style="swimlane;fontStyle=2;align=center;verticalAlign=top;childLayout=stackLayout;horizontal=1;startSize=26;horizontalStack=0;resizeParent=1;resizeLast=0;collapsible=1;marginBottom=0;rounded=0;shadow=0;strokeWidth=1;" vertex="1" parent="1">
          <mxGeometry x="220" y="1060" width="200" height="220" as="geometry">
            <mxRectangle x="200" y="60" width="160" height="26" as="alternateBounds" />
          </mxGeometry>
        </mxCell>
        <mxCell id="3ZcGKBEtEyjRyk-508pL-15" value="-userStatus: string" style="text;align=left;verticalAlign=top;spacingLeft=4;spacingRight=4;overflow=hidden;rotatable=0;points=[[0,0.5],[1,0.5]];portConstraint=eastwest;rounded=0;shadow=0;html=0;" vertex="1" parent="3ZcGKBEtEyjRyk-508pL-14">
          <mxGeometry y="26" width="200" height="26" as="geometry" />
        </mxCell>
        <mxCell id="3ZcGKBEtEyjRyk-508pL-16" value="" style="line;html=1;strokeWidth=1;align=left;verticalAlign=middle;spacingTop=-1;spacingLeft=3;spacingRight=3;rotatable=0;labelPosition=right;points=[];portConstraint=eastwest;" vertex="1" parent="3ZcGKBEtEyjRyk-508pL-14">
          <mxGeometry y="52" width="200" height="20" as="geometry" />
        </mxCell>
        <mxCell id="p31LB3DIuPgvged_EPHS-60" value="- joinConference(conference: Conference)" style="text;align=left;verticalAlign=top;spacingLeft=4;spacingRight=4;overflow=hidden;rotatable=0;points=[[0,0.5],[1,0.5]];portConstraint=eastwest;rounded=0;shadow=0;html=0;" vertex="1" parent="3ZcGKBEtEyjRyk-508pL-14">
          <mxGeometry y="72" width="200" height="26" as="geometry" />
        </mxCell>
        <mxCell id="p31LB3DIuPgvged_EPHS-61" value="- leaveConference(conference: Conference)" style="text;align=left;verticalAlign=top;spacingLeft=4;spacingRight=4;overflow=hidden;rotatable=0;points=[[0,0.5],[1,0.5]];portConstraint=eastwest;rounded=0;shadow=0;html=0;" vertex="1" parent="3ZcGKBEtEyjRyk-508pL-14">
          <mxGeometry y="98" width="200" height="26" as="geometry" />
        </mxCell>
        <mxCell id="p31LB3DIuPgvged_EPHS-62" value="- sendMessage(message: Message)" style="text;align=left;verticalAlign=top;spacingLeft=4;spacingRight=4;overflow=hidden;rotatable=0;points=[[0,0.5],[1,0.5]];portConstraint=eastwest;rounded=0;shadow=0;html=0;" vertex="1" parent="3ZcGKBEtEyjRyk-508pL-14">
          <mxGeometry y="124" width="200" height="26" as="geometry" />
        </mxCell>
        <mxCell id="p31LB3DIuPgvged_EPHS-63" value="- sendMediaStream(stream: MediaStream)" style="text;align=left;verticalAlign=top;spacingLeft=4;spacingRight=4;overflow=hidden;rotatable=0;points=[[0,0.5],[1,0.5]];portConstraint=eastwest;rounded=0;shadow=0;html=0;" vertex="1" parent="3ZcGKBEtEyjRyk-508pL-14">
          <mxGeometry y="150" width="200" height="26" as="geometry" />
        </mxCell>
        <mxCell id="3ZcGKBEtEyjRyk-508pL-19" value="Client_Profile_Controller" style="swimlane;fontStyle=2;align=center;verticalAlign=top;childLayout=stackLayout;horizontal=1;startSize=26;horizontalStack=0;resizeParent=1;resizeLast=0;collapsible=1;marginBottom=0;rounded=0;shadow=0;strokeWidth=1;" vertex="1" parent="1">
          <mxGeometry x="530" y="1030" width="260" height="246" as="geometry">
            <mxRectangle x="200" y="60" width="160" height="26" as="alternateBounds" />
          </mxGeometry>
        </mxCell>
        <mxCell id="3ZcGKBEtEyjRyk-508pL-20" value="" style="line;html=1;strokeWidth=1;align=left;verticalAlign=middle;spacingTop=-1;spacingLeft=3;spacingRight=3;rotatable=0;labelPosition=right;points=[];portConstraint=eastwest;" vertex="1" parent="3ZcGKBEtEyjRyk-508pL-19">
          <mxGeometry y="26" width="260" height="20" as="geometry" />
        </mxCell>
        <mxCell id="3ZcGKBEtEyjRyk-508pL-21" value="+ChangeUsername(username:string)" style="text;align=left;verticalAlign=top;spacingLeft=4;spacingRight=4;overflow=hidden;rotatable=0;points=[[0,0.5],[1,0.5]];portConstraint=eastwest;" vertex="1" parent="3ZcGKBEtEyjRyk-508pL-19">
          <mxGeometry y="46" width="260" height="20" as="geometry" />
        </mxCell>
        <mxCell id="3ZcGKBEtEyjRyk-508pL-22" value="+GetName():string" style="text;align=left;verticalAlign=top;spacingLeft=4;spacingRight=4;overflow=hidden;rotatable=0;points=[[0,0.5],[1,0.5]];portConstraint=eastwest;" vertex="1" parent="3ZcGKBEtEyjRyk-508pL-19">
          <mxGeometry y="66" width="260" height="20" as="geometry" />
        </mxCell>
        <mxCell id="3ZcGKBEtEyjRyk-508pL-23" value="+SetName(username:string)" style="text;align=left;verticalAlign=top;spacingLeft=4;spacingRight=4;overflow=hidden;rotatable=0;points=[[0,0.5],[1,0.5]];portConstraint=eastwest;" vertex="1" parent="3ZcGKBEtEyjRyk-508pL-19">
          <mxGeometry y="86" width="260" height="20" as="geometry" />
        </mxCell>
        <mxCell id="3ZcGKBEtEyjRyk-508pL-24" value="+ChangePhoneNumber(phoneNumber:string)" style="text;align=left;verticalAlign=top;spacingLeft=4;spacingRight=4;overflow=hidden;rotatable=0;points=[[0,0.5],[1,0.5]];portConstraint=eastwest;" vertex="1" parent="3ZcGKBEtEyjRyk-508pL-19">
          <mxGeometry y="106" width="260" height="20" as="geometry" />
        </mxCell>
        <mxCell id="3ZcGKBEtEyjRyk-508pL-25" value="+GetPhoneNumber():string" style="text;align=left;verticalAlign=top;spacingLeft=4;spacingRight=4;overflow=hidden;rotatable=0;points=[[0,0.5],[1,0.5]];portConstraint=eastwest;" vertex="1" parent="3ZcGKBEtEyjRyk-508pL-19">
          <mxGeometry y="126" width="260" height="20" as="geometry" />
        </mxCell>
        <mxCell id="3ZcGKBEtEyjRyk-508pL-26" value="+SetPhoneNumber(phoneNumber:string)" style="text;align=left;verticalAlign=top;spacingLeft=4;spacingRight=4;overflow=hidden;rotatable=0;points=[[0,0.5],[1,0.5]];portConstraint=eastwest;" vertex="1" parent="3ZcGKBEtEyjRyk-508pL-19">
          <mxGeometry y="146" width="260" height="20" as="geometry" />
        </mxCell>
        <mxCell id="3ZcGKBEtEyjRyk-508pL-27" value="+GetEmail():string" style="text;align=left;verticalAlign=top;spacingLeft=4;spacingRight=4;overflow=hidden;rotatable=0;points=[[0,0.5],[1,0.5]];portConstraint=eastwest;" vertex="1" parent="3ZcGKBEtEyjRyk-508pL-19">
          <mxGeometry y="166" width="260" height="20" as="geometry" />
        </mxCell>
        <mxCell id="3ZcGKBEtEyjRyk-508pL-28" value="+SetEmail(email:string)" style="text;align=left;verticalAlign=top;spacingLeft=4;spacingRight=4;overflow=hidden;rotatable=0;points=[[0,0.5],[1,0.5]];portConstraint=eastwest;" vertex="1" parent="3ZcGKBEtEyjRyk-508pL-19">
          <mxGeometry y="186" width="260" height="20" as="geometry" />
        </mxCell>
        <mxCell id="3ZcGKBEtEyjRyk-508pL-29" value="+ChangeEmail(email:string)" style="text;align=left;verticalAlign=top;spacingLeft=4;spacingRight=4;overflow=hidden;rotatable=0;points=[[0,0.5],[1,0.5]];portConstraint=eastwest;" vertex="1" parent="3ZcGKBEtEyjRyk-508pL-19">
          <mxGeometry y="206" width="260" height="20" as="geometry" />
        </mxCell>
        <mxCell id="3ZcGKBEtEyjRyk-508pL-30" value="+GetStatus():string" style="text;align=left;verticalAlign=top;spacingLeft=4;spacingRight=4;overflow=hidden;rotatable=0;points=[[0,0.5],[1,0.5]];portConstraint=eastwest;" vertex="1" parent="3ZcGKBEtEyjRyk-508pL-19">
          <mxGeometry y="226" width="260" height="20" as="geometry" />
        </mxCell>
        <mxCell id="3ZcGKBEtEyjRyk-508pL-31" value="" style="endArrow=block;endSize=10;endFill=0;shadow=0;strokeWidth=1;rounded=0;edgeStyle=elbowEdgeStyle;elbow=vertical;exitX=0.5;exitY=0;exitDx=0;exitDy=0;entryX=0.5;entryY=1;entryDx=0;entryDy=0;" edge="1" parent="1" source="3ZcGKBEtEyjRyk-508pL-14" target="3ZcGKBEtEyjRyk-508pL-1">
          <mxGeometry width="160" relative="1" as="geometry">
            <mxPoint x="340" y="1035.9999999999998" as="sourcePoint" />
            <mxPoint x="240" y="936" as="targetPoint" />
            <Array as="points" />
          </mxGeometry>
        </mxCell>
        <mxCell id="3ZcGKBEtEyjRyk-508pL-32" value="" style="endArrow=block;dashed=1;endFill=0;endSize=12;html=1;rounded=0;entryX=0;entryY=0.5;entryDx=0;entryDy=0;exitX=1.011;exitY=0.096;exitDx=0;exitDy=0;exitPerimeter=0;" edge="1" parent="1" source="3ZcGKBEtEyjRyk-508pL-14" target="3ZcGKBEtEyjRyk-508pL-24">
          <mxGeometry width="160" relative="1" as="geometry">
            <mxPoint x="440" y="1140" as="sourcePoint" />
            <mxPoint x="530" y="1140" as="targetPoint" />
          </mxGeometry>
        </mxCell>
        <mxCell id="3ZcGKBEtEyjRyk-508pL-38" value="Conference " style="swimlane;fontStyle=2;align=center;verticalAlign=top;childLayout=stackLayout;horizontal=1;startSize=26;horizontalStack=0;resizeParent=1;resizeLast=0;collapsible=1;marginBottom=0;rounded=0;shadow=0;strokeWidth=1;" vertex="1" parent="1">
          <mxGeometry x="910" y="720" width="230" height="306" as="geometry">
            <mxRectangle x="200" y="60" width="160" height="26" as="alternateBounds" />
          </mxGeometry>
        </mxCell>
        <mxCell id="3ZcGKBEtEyjRyk-508pL-39" value="- conferenceID: integer" style="text;align=left;verticalAlign=top;spacingLeft=4;spacingRight=4;overflow=hidden;rotatable=0;points=[[0,0.5],[1,0.5]];portConstraint=eastwest;rounded=0;shadow=0;html=0;" vertex="1" parent="3ZcGKBEtEyjRyk-508pL-38">
          <mxGeometry y="26" width="230" height="26" as="geometry" />
        </mxCell>
        <mxCell id="3ZcGKBEtEyjRyk-508pL-40" value="- conferenceName: string" style="text;align=left;verticalAlign=top;spacingLeft=4;spacingRight=4;overflow=hidden;rotatable=0;points=[[0,0.5],[1,0.5]];portConstraint=eastwest;" vertex="1" parent="3ZcGKBEtEyjRyk-508pL-38">
          <mxGeometry y="52" width="230" height="26" as="geometry" />
        </mxCell>
        <mxCell id="3ZcGKBEtEyjRyk-508pL-41" value="- participants: List&lt;User&gt;" style="text;align=left;verticalAlign=top;spacingLeft=4;spacingRight=4;overflow=hidden;rotatable=0;points=[[0,0.5],[1,0.5]];portConstraint=eastwest;" vertex="1" parent="3ZcGKBEtEyjRyk-508pL-38">
          <mxGeometry y="78" width="230" height="26" as="geometry" />
        </mxCell>
        <mxCell id="3ZcGKBEtEyjRyk-508pL-42" value="- startTime: DateTime" style="text;align=left;verticalAlign=top;spacingLeft=4;spacingRight=4;overflow=hidden;rotatable=0;points=[[0,0.5],[1,0.5]];portConstraint=eastwest;" vertex="1" parent="3ZcGKBEtEyjRyk-508pL-38">
          <mxGeometry y="104" width="230" height="26" as="geometry" />
        </mxCell>
        <mxCell id="p31LB3DIuPgvged_EPHS-7" value="- endTime: DateTime" style="text;align=left;verticalAlign=top;spacingLeft=4;spacingRight=4;overflow=hidden;rotatable=0;points=[[0,0.5],[1,0.5]];portConstraint=eastwest;" vertex="1" parent="3ZcGKBEtEyjRyk-508pL-38">
          <mxGeometry y="130" width="230" height="26" as="geometry" />
        </mxCell>
        <mxCell id="3ZcGKBEtEyjRyk-508pL-43" value="" style="line;html=1;strokeWidth=1;align=left;verticalAlign=middle;spacingTop=-1;spacingLeft=3;spacingRight=3;rotatable=0;labelPosition=right;points=[];portConstraint=eastwest;" vertex="1" parent="3ZcGKBEtEyjRyk-508pL-38">
          <mxGeometry y="156" width="230" height="20" as="geometry" />
        </mxCell>
        <mxCell id="p31LB3DIuPgvged_EPHS-8" value="- addParticipant(user: User)" style="text;align=left;verticalAlign=top;spacingLeft=4;spacingRight=4;overflow=hidden;rotatable=0;points=[[0,0.5],[1,0.5]];portConstraint=eastwest;" vertex="1" parent="3ZcGKBEtEyjRyk-508pL-38">
          <mxGeometry y="176" width="230" height="26" as="geometry" />
        </mxCell>
        <mxCell id="p31LB3DIuPgvged_EPHS-9" value="- removeParticipant(user: User)" style="text;align=left;verticalAlign=top;spacingLeft=4;spacingRight=4;overflow=hidden;rotatable=0;points=[[0,0.5],[1,0.5]];portConstraint=eastwest;" vertex="1" parent="3ZcGKBEtEyjRyk-508pL-38">
          <mxGeometry y="202" width="230" height="26" as="geometry" />
        </mxCell>
        <mxCell id="p31LB3DIuPgvged_EPHS-10" value="- start()" style="text;align=left;verticalAlign=top;spacingLeft=4;spacingRight=4;overflow=hidden;rotatable=0;points=[[0,0.5],[1,0.5]];portConstraint=eastwest;" vertex="1" parent="3ZcGKBEtEyjRyk-508pL-38">
          <mxGeometry y="228" width="230" height="26" as="geometry" />
        </mxCell>
        <mxCell id="p31LB3DIuPgvged_EPHS-11" value="- end()" style="text;align=left;verticalAlign=top;spacingLeft=4;spacingRight=4;overflow=hidden;rotatable=0;points=[[0,0.5],[1,0.5]];portConstraint=eastwest;" vertex="1" parent="3ZcGKBEtEyjRyk-508pL-38">
          <mxGeometry y="254" width="230" height="26" as="geometry" />
        </mxCell>
        <mxCell id="p31LB3DIuPgvged_EPHS-12" value="- broadcastMessage(message: Message)" style="text;align=left;verticalAlign=top;spacingLeft=4;spacingRight=4;overflow=hidden;rotatable=0;points=[[0,0.5],[1,0.5]];portConstraint=eastwest;" vertex="1" parent="3ZcGKBEtEyjRyk-508pL-38">
          <mxGeometry y="280" width="230" height="26" as="geometry" />
        </mxCell>
        <mxCell id="3ZcGKBEtEyjRyk-508pL-44" value="Conference_Controller" style="swimlane;fontStyle=2;align=center;verticalAlign=top;childLayout=stackLayout;horizontal=1;startSize=26;horizontalStack=0;resizeParent=1;resizeLast=0;collapsible=1;marginBottom=0;rounded=0;shadow=0;strokeWidth=1;" vertex="1" parent="1">
          <mxGeometry x="880" y="1085" width="250" height="112" as="geometry">
            <mxRectangle x="200" y="60" width="160" height="26" as="alternateBounds" />
          </mxGeometry>
        </mxCell>
        <mxCell id="3ZcGKBEtEyjRyk-508pL-45" value="" style="line;html=1;strokeWidth=1;align=left;verticalAlign=middle;spacingTop=-1;spacingLeft=3;spacingRight=3;rotatable=0;labelPosition=right;points=[];portConstraint=eastwest;" vertex="1" parent="3ZcGKBEtEyjRyk-508pL-44">
          <mxGeometry y="26" width="250" height="20" as="geometry" />
        </mxCell>
        <mxCell id="3ZcGKBEtEyjRyk-508pL-46" value="+ChangeConferenceName(username:string)" style="text;align=left;verticalAlign=top;spacingLeft=4;spacingRight=4;overflow=hidden;rotatable=0;points=[[0,0.5],[1,0.5]];portConstraint=eastwest;" vertex="1" parent="3ZcGKBEtEyjRyk-508pL-44">
          <mxGeometry y="46" width="250" height="20" as="geometry" />
        </mxCell>
        <mxCell id="3ZcGKBEtEyjRyk-508pL-47" value="+GetConferenceName():string" style="text;align=left;verticalAlign=top;spacingLeft=4;spacingRight=4;overflow=hidden;rotatable=0;points=[[0,0.5],[1,0.5]];portConstraint=eastwest;" vertex="1" parent="3ZcGKBEtEyjRyk-508pL-44">
          <mxGeometry y="66" width="250" height="20" as="geometry" />
        </mxCell>
        <mxCell id="3ZcGKBEtEyjRyk-508pL-50" value="Account service" style="swimlane;fontStyle=2;align=center;verticalAlign=top;childLayout=stackLayout;horizontal=1;startSize=26;horizontalStack=0;resizeParent=1;resizeLast=0;collapsible=1;marginBottom=0;rounded=0;shadow=0;strokeWidth=1;" vertex="1" parent="1">
          <mxGeometry x="420" y="780" width="300" height="150" as="geometry">
            <mxRectangle x="200" y="60" width="160" height="26" as="alternateBounds" />
          </mxGeometry>
        </mxCell>
        <mxCell id="3ZcGKBEtEyjRyk-508pL-51" value="" style="line;html=1;strokeWidth=1;align=left;verticalAlign=middle;spacingTop=-1;spacingLeft=3;spacingRight=3;rotatable=0;labelPosition=right;points=[];portConstraint=eastwest;" vertex="1" parent="3ZcGKBEtEyjRyk-508pL-50">
          <mxGeometry y="26" width="300" height="20" as="geometry" />
        </mxCell>
        <mxCell id="3ZcGKBEtEyjRyk-508pL-52" value="+SignUp(email:string.hashPassword:string): user" style="text;align=left;verticalAlign=top;spacingLeft=4;spacingRight=4;overflow=hidden;rotatable=0;points=[[0,0.5],[1,0.5]];portConstraint=eastwest;" vertex="1" parent="3ZcGKBEtEyjRyk-508pL-50">
          <mxGeometry y="46" width="300" height="20" as="geometry" />
        </mxCell>
        <mxCell id="3ZcGKBEtEyjRyk-508pL-53" value="+SignIn (email:string.hashPassword:string)&#xa;" style="text;align=left;verticalAlign=top;spacingLeft=4;spacingRight=4;overflow=hidden;rotatable=0;points=[[0,0.5],[1,0.5]];portConstraint=eastwest;" vertex="1" parent="3ZcGKBEtEyjRyk-508pL-50">
          <mxGeometry y="66" width="300" height="20" as="geometry" />
        </mxCell>
        <mxCell id="3ZcGKBEtEyjRyk-508pL-54" value="+SignOut(sampleUser:user)" style="text;align=left;verticalAlign=top;spacingLeft=4;spacingRight=4;overflow=hidden;rotatable=0;points=[[0,0.5],[1,0.5]];portConstraint=eastwest;" vertex="1" parent="3ZcGKBEtEyjRyk-508pL-50">
          <mxGeometry y="86" width="300" height="20" as="geometry" />
        </mxCell>
        <mxCell id="3ZcGKBEtEyjRyk-508pL-55" value="" style="endArrow=block;dashed=1;endFill=0;endSize=12;html=1;rounded=0;entryX=0.5;entryY=0;entryDx=0;entryDy=0;exitX=0.5;exitY=1;exitDx=0;exitDy=0;" edge="1" parent="1" source="3ZcGKBEtEyjRyk-508pL-38" target="3ZcGKBEtEyjRyk-508pL-44">
          <mxGeometry width="160" relative="1" as="geometry">
            <mxPoint x="952" y="970" as="sourcePoint" />
            <mxPoint x="1060" y="1035" as="targetPoint" />
          </mxGeometry>
        </mxCell>
        <mxCell id="3ZcGKBEtEyjRyk-508pL-56" style="edgeStyle=orthogonalEdgeStyle;rounded=0;orthogonalLoop=1;jettySize=auto;html=1;exitX=1;exitY=0.5;exitDx=0;exitDy=0;entryX=0;entryY=0.5;entryDx=0;entryDy=0;" edge="1" parent="1" target="3ZcGKBEtEyjRyk-508pL-54">
          <mxGeometry relative="1" as="geometry">
            <mxPoint x="320" y="809.0000000000005" as="sourcePoint" />
          </mxGeometry>
        </mxCell>
        <mxCell id="3ZcGKBEtEyjRyk-508pL-57" value="use" style="edgeLabel;html=1;align=center;verticalAlign=middle;resizable=0;points=[];" vertex="1" connectable="0" parent="3ZcGKBEtEyjRyk-508pL-56">
          <mxGeometry x="-0.2622" y="1" relative="1" as="geometry">
            <mxPoint as="offset" />
          </mxGeometry>
        </mxCell>
        <mxCell id="3ZcGKBEtEyjRyk-508pL-66" style="edgeStyle=orthogonalEdgeStyle;rounded=0;orthogonalLoop=1;jettySize=auto;html=1;exitX=0.5;exitY=1;exitDx=0;exitDy=0;" edge="1" parent="1" source="3ZcGKBEtEyjRyk-508pL-67">
          <mxGeometry relative="1" as="geometry">
            <Array as="points">
              <mxPoint x="870" y="640" />
              <mxPoint x="870" y="820" />
              <mxPoint x="720" y="820" />
            </Array>
            <mxPoint x="720" y="820" as="targetPoint" />
          </mxGeometry>
        </mxCell>
        <mxCell id="3ZcGKBEtEyjRyk-508pL-67" value="UserManager" style="swimlane;fontStyle=2;align=center;verticalAlign=top;childLayout=stackLayout;horizontal=1;startSize=26;horizontalStack=0;resizeParent=1;resizeLast=0;collapsible=1;marginBottom=0;rounded=0;shadow=0;strokeWidth=1;" vertex="1" parent="1">
          <mxGeometry x="730" y="450" width="330" height="190" as="geometry">
            <mxRectangle x="200" y="60" width="160" height="26" as="alternateBounds" />
          </mxGeometry>
        </mxCell>
        <mxCell id="3ZcGKBEtEyjRyk-508pL-68" value="-users: List&lt;user&gt;" style="text;align=left;verticalAlign=top;spacingLeft=4;spacingRight=4;overflow=hidden;rotatable=0;points=[[0,0.5],[1,0.5]];portConstraint=eastwest;" vertex="1" parent="3ZcGKBEtEyjRyk-508pL-67">
          <mxGeometry y="26" width="330" height="44" as="geometry" />
        </mxCell>
        <mxCell id="3ZcGKBEtEyjRyk-508pL-69" value="" style="line;html=1;strokeWidth=1;align=left;verticalAlign=middle;spacingTop=-1;spacingLeft=3;spacingRight=3;rotatable=0;labelPosition=right;points=[];portConstraint=eastwest;" vertex="1" parent="3ZcGKBEtEyjRyk-508pL-67">
          <mxGeometry y="70" width="330" height="20" as="geometry" />
        </mxCell>
        <mxCell id="3ZcGKBEtEyjRyk-508pL-70" value="+ add_user(user: User): void &#xa;+ Remove_user(user: User): void &#xa;+ find_user_by_email(email: User): user&#xa;+ check_password(user: User, password: string): bool" style="text;align=left;verticalAlign=top;spacingLeft=4;spacingRight=4;overflow=hidden;rotatable=0;points=[[0,0.5],[1,0.5]];portConstraint=eastwest;" vertex="1" parent="3ZcGKBEtEyjRyk-508pL-67">
          <mxGeometry y="90" width="330" height="86" as="geometry" />
        </mxCell>
        <mxCell id="3ZcGKBEtEyjRyk-508pL-71" value="database repos clients" style="swimlane;fontStyle=2;align=center;verticalAlign=top;childLayout=stackLayout;horizontal=1;startSize=26;horizontalStack=0;resizeParent=1;resizeLast=0;collapsible=1;marginBottom=0;rounded=0;shadow=0;strokeWidth=1;" vertex="1" parent="1">
          <mxGeometry x="220" y="1316" width="200" height="220" as="geometry">
            <mxRectangle x="200" y="60" width="160" height="26" as="alternateBounds" />
          </mxGeometry>
        </mxCell>
        <mxCell id="3ZcGKBEtEyjRyk-508pL-72" value="+ListUsers: List&lt;Users&gt;" style="text;align=left;verticalAlign=top;spacingLeft=4;spacingRight=4;overflow=hidden;rotatable=0;points=[[0,0.5],[1,0.5]];portConstraint=eastwest;" vertex="1" parent="3ZcGKBEtEyjRyk-508pL-71">
          <mxGeometry y="26" width="200" height="26" as="geometry" />
        </mxCell>
        <mxCell id="3ZcGKBEtEyjRyk-508pL-73" value="" style="line;html=1;strokeWidth=1;align=left;verticalAlign=middle;spacingTop=-1;spacingLeft=3;spacingRight=3;rotatable=0;labelPosition=right;points=[];portConstraint=eastwest;" vertex="1" parent="3ZcGKBEtEyjRyk-508pL-71">
          <mxGeometry y="52" width="200" height="20" as="geometry" />
        </mxCell>
        <mxCell id="3ZcGKBEtEyjRyk-508pL-74" value="+AddUser(sampleUser:user)" style="text;align=left;verticalAlign=top;spacingLeft=4;spacingRight=4;overflow=hidden;rotatable=0;points=[[0,0.5],[1,0.5]];portConstraint=eastwest;" vertex="1" parent="3ZcGKBEtEyjRyk-508pL-71">
          <mxGeometry y="72" width="200" height="20" as="geometry" />
        </mxCell>
        <mxCell id="3ZcGKBEtEyjRyk-508pL-75" value="+DeleteUser(sampleUser:user)" style="text;align=left;verticalAlign=top;spacingLeft=4;spacingRight=4;overflow=hidden;rotatable=0;points=[[0,0.5],[1,0.5]];portConstraint=eastwest;" vertex="1" parent="3ZcGKBEtEyjRyk-508pL-71">
          <mxGeometry y="92" width="200" height="20" as="geometry" />
        </mxCell>
        <mxCell id="3ZcGKBEtEyjRyk-508pL-76" value="+GetUser(userID:integet): user" style="text;align=left;verticalAlign=top;spacingLeft=4;spacingRight=4;overflow=hidden;rotatable=0;points=[[0,0.5],[1,0.5]];portConstraint=eastwest;" vertex="1" parent="3ZcGKBEtEyjRyk-508pL-71">
          <mxGeometry y="112" width="200" height="20" as="geometry" />
        </mxCell>
        <mxCell id="3ZcGKBEtEyjRyk-508pL-77" style="edgeStyle=orthogonalEdgeStyle;rounded=0;orthogonalLoop=1;jettySize=auto;html=1;exitX=1;exitY=0.5;exitDx=0;exitDy=0;" edge="1" parent="1" source="3ZcGKBEtEyjRyk-508pL-3" target="3ZcGKBEtEyjRyk-508pL-70">
          <mxGeometry relative="1" as="geometry">
            <Array as="points">
              <mxPoint x="350" y="795" />
              <mxPoint x="350" y="710" />
              <mxPoint x="518" y="710" />
              <mxPoint x="518" y="560" />
            </Array>
          </mxGeometry>
        </mxCell>
        <mxCell id="3ZcGKBEtEyjRyk-508pL-83" value="" style="endArrow=none;html=1;rounded=0;entryX=0;entryY=0.5;entryDx=0;entryDy=0;exitX=1;exitY=0.5;exitDx=0;exitDy=0;" edge="1" parent="1" source="3ZcGKBEtEyjRyk-508pL-40" target="p31LB3DIuPgvged_EPHS-13">
          <mxGeometry width="50" height="50" relative="1" as="geometry">
            <mxPoint x="1130" y="840" as="sourcePoint" />
            <mxPoint x="1210" y="840" as="targetPoint" />
            <Array as="points" />
          </mxGeometry>
        </mxCell>
        <mxCell id="3ZcGKBEtEyjRyk-508pL-92" value="ConferenceRepository" style="swimlane;fontStyle=2;align=center;verticalAlign=top;childLayout=stackLayout;horizontal=1;startSize=26;horizontalStack=0;resizeParent=1;resizeLast=0;collapsible=1;marginBottom=0;rounded=0;shadow=0;strokeWidth=1;" vertex="1" parent="1">
          <mxGeometry x="1320" y="1260" width="290" height="170" as="geometry">
            <mxRectangle x="200" y="60" width="160" height="26" as="alternateBounds" />
          </mxGeometry>
        </mxCell>
        <mxCell id="3ZcGKBEtEyjRyk-508pL-93" value="-conference: List&lt;Conference&gt;" style="text;align=left;verticalAlign=top;spacingLeft=4;spacingRight=4;overflow=hidden;rotatable=0;points=[[0,0.5],[1,0.5]];portConstraint=eastwest;" vertex="1" parent="3ZcGKBEtEyjRyk-508pL-92">
          <mxGeometry y="26" width="290" height="26" as="geometry" />
        </mxCell>
        <mxCell id="3ZcGKBEtEyjRyk-508pL-94" value="" style="line;html=1;strokeWidth=1;align=left;verticalAlign=middle;spacingTop=-1;spacingLeft=3;spacingRight=3;rotatable=0;labelPosition=right;points=[];portConstraint=eastwest;" vertex="1" parent="3ZcGKBEtEyjRyk-508pL-92">
          <mxGeometry y="52" width="290" height="20" as="geometry" />
        </mxCell>
        <mxCell id="3ZcGKBEtEyjRyk-508pL-95" value="+ add_conference(conference: Conference): void &#xa;+ remove_conference(conference: Conference): void &#xa;+ find_conference_by_id(conferenceID: integer)" style="text;align=left;verticalAlign=top;spacingLeft=4;spacingRight=4;overflow=hidden;rotatable=0;points=[[0,0.5],[1,0.5]];portConstraint=eastwest;" vertex="1" parent="3ZcGKBEtEyjRyk-508pL-92">
          <mxGeometry y="72" width="290" height="98" as="geometry" />
        </mxCell>
        <mxCell id="3ZcGKBEtEyjRyk-508pL-96" value="" style="endArrow=classic;startArrow=classic;html=1;rounded=0;exitX=-0.004;exitY=0.1;exitDx=0;exitDy=0;exitPerimeter=0;entryX=0.75;entryY=1;entryDx=0;entryDy=0;" edge="1" parent="1" source="3ZcGKBEtEyjRyk-508pL-92" target="3ZcGKBEtEyjRyk-508pL-38">
          <mxGeometry width="50" height="50" relative="1" as="geometry">
            <mxPoint x="980" y="1110" as="sourcePoint" />
            <mxPoint x="1050" y="960" as="targetPoint" />
          </mxGeometry>
        </mxCell>
        <mxCell id="3ZcGKBEtEyjRyk-508pL-101" value="" style="endArrow=diamondThin;endFill=1;endSize=24;html=1;rounded=0;entryX=0.839;entryY=-0.011;entryDx=0;entryDy=0;exitX=0.5;exitY=1;exitDx=0;exitDy=0;entryPerimeter=0;" edge="1" parent="1" source="p31LB3DIuPgvged_EPHS-26" target="3ZcGKBEtEyjRyk-508pL-38">
          <mxGeometry width="160" relative="1" as="geometry">
            <mxPoint x="1142.5" y="660" as="sourcePoint" />
            <mxPoint x="800" y="860" as="targetPoint" />
          </mxGeometry>
        </mxCell>
        <mxCell id="3ZcGKBEtEyjRyk-508pL-102" value="MessageRepository" style="swimlane;fontStyle=2;align=center;verticalAlign=top;childLayout=stackLayout;horizontal=1;startSize=26;horizontalStack=0;resizeParent=1;resizeLast=0;collapsible=1;marginBottom=0;rounded=0;shadow=0;strokeWidth=1;" vertex="1" parent="1">
          <mxGeometry x="1440" y="690" width="270" height="160" as="geometry">
            <mxRectangle x="200" y="60" width="160" height="26" as="alternateBounds" />
          </mxGeometry>
        </mxCell>
        <mxCell id="3ZcGKBEtEyjRyk-508pL-103" value="-message: List&lt;Message&gt;" style="text;align=left;verticalAlign=top;spacingLeft=4;spacingRight=4;overflow=hidden;rotatable=0;points=[[0,0.5],[1,0.5]];portConstraint=eastwest;" vertex="1" parent="3ZcGKBEtEyjRyk-508pL-102">
          <mxGeometry y="26" width="270" height="26" as="geometry" />
        </mxCell>
        <mxCell id="3ZcGKBEtEyjRyk-508pL-104" value="" style="line;html=1;strokeWidth=1;align=left;verticalAlign=middle;spacingTop=-1;spacingLeft=3;spacingRight=3;rotatable=0;labelPosition=right;points=[];portConstraint=eastwest;" vertex="1" parent="3ZcGKBEtEyjRyk-508pL-102">
          <mxGeometry y="52" width="270" height="20" as="geometry" />
        </mxCell>
        <mxCell id="3ZcGKBEtEyjRyk-508pL-105" value="+ send_message(message: Message): void &#xa;+ remove_message(message: Message): void" style="text;align=left;verticalAlign=top;spacingLeft=4;spacingRight=4;overflow=hidden;rotatable=0;points=[[0,0.5],[1,0.5]];portConstraint=eastwest;" vertex="1" parent="3ZcGKBEtEyjRyk-508pL-102">
          <mxGeometry y="72" width="270" height="86" as="geometry" />
        </mxCell>
        <mxCell id="3ZcGKBEtEyjRyk-508pL-106" value="" style="endArrow=classic;startArrow=classic;html=1;rounded=0;exitX=0.5;exitY=0;exitDx=0;exitDy=0;entryX=0.5;entryY=1;entryDx=0;entryDy=0;" edge="1" parent="1" source="3ZcGKBEtEyjRyk-508pL-102" target="p31LB3DIuPgvged_EPHS-13">
          <mxGeometry width="50" height="50" relative="1" as="geometry">
            <mxPoint x="1819" y="701" as="sourcePoint" />
            <mxPoint x="1610" y="545" as="targetPoint" />
          </mxGeometry>
        </mxCell>
        <mxCell id="3ZcGKBEtEyjRyk-508pL-107" value="Message_Controller" style="swimlane;fontStyle=2;align=center;verticalAlign=top;childLayout=stackLayout;horizontal=1;startSize=26;horizontalStack=0;resizeParent=1;resizeLast=0;collapsible=1;marginBottom=0;rounded=0;shadow=0;strokeWidth=1;" vertex="1" parent="1">
          <mxGeometry x="1250" y="970" width="400" height="120" as="geometry">
            <mxRectangle x="200" y="60" width="160" height="26" as="alternateBounds" />
          </mxGeometry>
        </mxCell>
        <mxCell id="3ZcGKBEtEyjRyk-508pL-108" value="" style="line;html=1;strokeWidth=1;align=left;verticalAlign=middle;spacingTop=-1;spacingLeft=3;spacingRight=3;rotatable=0;labelPosition=right;points=[];portConstraint=eastwest;" vertex="1" parent="3ZcGKBEtEyjRyk-508pL-107">
          <mxGeometry y="26" width="400" height="20" as="geometry" />
        </mxCell>
        <mxCell id="3ZcGKBEtEyjRyk-508pL-110" value="+GetText_of_message(message:Message):string" style="text;align=left;verticalAlign=top;spacingLeft=4;spacingRight=4;overflow=hidden;rotatable=0;points=[[0,0.5],[1,0.5]];portConstraint=eastwest;" vertex="1" parent="3ZcGKBEtEyjRyk-508pL-107">
          <mxGeometry y="46" width="400" height="20" as="geometry" />
        </mxCell>
        <mxCell id="3ZcGKBEtEyjRyk-508pL-111" value="+ChangeText_of_message(message:Message, new_text:string):message" style="text;align=left;verticalAlign=top;spacingLeft=4;spacingRight=4;overflow=hidden;rotatable=0;points=[[0,0.5],[1,0.5]];portConstraint=eastwest;" vertex="1" parent="3ZcGKBEtEyjRyk-508pL-107">
          <mxGeometry y="66" width="400" height="26" as="geometry" />
        </mxCell>
        <mxCell id="3ZcGKBEtEyjRyk-508pL-113" value="" style="endArrow=block;dashed=1;endFill=0;endSize=12;html=1;rounded=0;entryX=0.449;entryY=0.006;entryDx=0;entryDy=0;exitX=0.468;exitY=1.031;exitDx=0;exitDy=0;exitPerimeter=0;entryPerimeter=0;" edge="1" parent="1" source="3ZcGKBEtEyjRyk-508pL-105" target="3ZcGKBEtEyjRyk-508pL-107">
          <mxGeometry width="160" relative="1" as="geometry">
            <mxPoint x="1940" y="880" as="sourcePoint" />
            <mxPoint x="1920" y="1009" as="targetPoint" />
          </mxGeometry>
        </mxCell>
        <mxCell id="3ZcGKBEtEyjRyk-508pL-120" value="MediaStreamRepository" style="swimlane;fontStyle=2;align=center;verticalAlign=top;childLayout=stackLayout;horizontal=1;startSize=26;horizontalStack=0;resizeParent=1;resizeLast=0;collapsible=1;marginBottom=0;rounded=0;shadow=0;strokeWidth=1;" vertex="1" parent="1">
          <mxGeometry x="1250" y="-40" width="320" height="160" as="geometry">
            <mxRectangle x="200" y="60" width="160" height="26" as="alternateBounds" />
          </mxGeometry>
        </mxCell>
        <mxCell id="3ZcGKBEtEyjRyk-508pL-121" value="-medaistream: List&lt;MediaStream&gt;" style="text;align=left;verticalAlign=top;spacingLeft=4;spacingRight=4;overflow=hidden;rotatable=0;points=[[0,0.5],[1,0.5]];portConstraint=eastwest;" vertex="1" parent="3ZcGKBEtEyjRyk-508pL-120">
          <mxGeometry y="26" width="320" height="26" as="geometry" />
        </mxCell>
        <mxCell id="3ZcGKBEtEyjRyk-508pL-122" value="" style="line;html=1;strokeWidth=1;align=left;verticalAlign=middle;spacingTop=-1;spacingLeft=3;spacingRight=3;rotatable=0;labelPosition=right;points=[];portConstraint=eastwest;" vertex="1" parent="3ZcGKBEtEyjRyk-508pL-120">
          <mxGeometry y="52" width="320" height="20" as="geometry" />
        </mxCell>
        <mxCell id="3ZcGKBEtEyjRyk-508pL-123" value="+ add_stream(mediasrteam: MediaStream): void &#xa;+ remove_stream(mediastream:MediaStream): void &#xa;+ get_stream(conferenceID: integer): List&lt;MediaStream&gt;" style="text;align=left;verticalAlign=top;spacingLeft=4;spacingRight=4;overflow=hidden;rotatable=0;points=[[0,0.5],[1,0.5]];portConstraint=eastwest;" vertex="1" parent="3ZcGKBEtEyjRyk-508pL-120">
          <mxGeometry y="72" width="320" height="86" as="geometry" />
        </mxCell>
        <mxCell id="3ZcGKBEtEyjRyk-508pL-124" value="MediaStream_Controller" style="swimlane;fontStyle=2;align=center;verticalAlign=top;childLayout=stackLayout;horizontal=1;startSize=26;horizontalStack=0;resizeParent=1;resizeLast=0;collapsible=1;marginBottom=0;rounded=0;shadow=0;strokeWidth=1;" vertex="1" parent="1">
          <mxGeometry x="750" y="200" width="310" height="130" as="geometry">
            <mxRectangle x="200" y="60" width="160" height="26" as="alternateBounds" />
          </mxGeometry>
        </mxCell>
        <mxCell id="3ZcGKBEtEyjRyk-508pL-125" value="" style="line;html=1;strokeWidth=1;align=left;verticalAlign=middle;spacingTop=-1;spacingLeft=3;spacingRight=3;rotatable=0;labelPosition=right;points=[];portConstraint=eastwest;" vertex="1" parent="3ZcGKBEtEyjRyk-508pL-124">
          <mxGeometry y="26" width="310" height="20" as="geometry" />
        </mxCell>
        <mxCell id="3ZcGKBEtEyjRyk-508pL-127" value="+ChangeStreamType(streamType:string)" style="text;align=left;verticalAlign=top;spacingLeft=4;spacingRight=4;overflow=hidden;rotatable=0;points=[[0,0.5],[1,0.5]];portConstraint=eastwest;" vertex="1" parent="3ZcGKBEtEyjRyk-508pL-124">
          <mxGeometry y="46" width="310" height="30" as="geometry" />
        </mxCell>
        <mxCell id="3ZcGKBEtEyjRyk-508pL-128" value="+ChangeStreamResolution(resolution:integer)" style="text;align=left;verticalAlign=top;spacingLeft=4;spacingRight=4;overflow=hidden;rotatable=0;points=[[0,0.5],[1,0.5]];portConstraint=eastwest;" vertex="1" parent="3ZcGKBEtEyjRyk-508pL-124">
          <mxGeometry y="76" width="310" height="30" as="geometry" />
        </mxCell>
        <mxCell id="3ZcGKBEtEyjRyk-508pL-130" value="" style="endArrow=block;dashed=1;endFill=0;endSize=12;html=1;rounded=0;entryX=0.855;entryY=0.008;entryDx=0;entryDy=0;exitX=0.468;exitY=1.031;exitDx=0;exitDy=0;exitPerimeter=0;entryPerimeter=0;" edge="1" parent="1" source="3ZcGKBEtEyjRyk-508pL-123" target="3ZcGKBEtEyjRyk-508pL-124">
          <mxGeometry width="160" relative="1" as="geometry">
            <mxPoint x="1570" y="160" as="sourcePoint" />
            <mxPoint x="1550" y="289" as="targetPoint" />
          </mxGeometry>
        </mxCell>
        <mxCell id="3ZcGKBEtEyjRyk-508pL-131" style="edgeStyle=orthogonalEdgeStyle;rounded=0;orthogonalLoop=1;jettySize=auto;html=1;exitX=0.016;exitY=0.167;exitDx=0;exitDy=0;entryX=1;entryY=0.5;entryDx=0;entryDy=0;exitPerimeter=0;" edge="1" parent="1" source="3ZcGKBEtEyjRyk-508pL-123" target="3ZcGKBEtEyjRyk-508pL-137">
          <mxGeometry relative="1" as="geometry">
            <mxPoint x="1069.53" y="-23" as="sourcePoint" />
            <mxPoint x="1080" y="60" as="targetPoint" />
          </mxGeometry>
        </mxCell>
        <mxCell id="3ZcGKBEtEyjRyk-508pL-132" value="use" style="edgeLabel;html=1;align=center;verticalAlign=middle;resizable=0;points=[];" vertex="1" connectable="0" parent="3ZcGKBEtEyjRyk-508pL-131">
          <mxGeometry x="-0.2622" y="1" relative="1" as="geometry">
            <mxPoint as="offset" />
          </mxGeometry>
        </mxCell>
        <mxCell id="3ZcGKBEtEyjRyk-508pL-133" value="" style="endArrow=block;dashed=1;endFill=0;endSize=12;html=1;rounded=0;entryX=0.25;entryY=0;entryDx=0;entryDy=0;exitX=0.75;exitY=1;exitDx=0;exitDy=0;" edge="1" parent="1" source="3ZcGKBEtEyjRyk-508pL-135" target="3ZcGKBEtEyjRyk-508pL-124">
          <mxGeometry width="160" relative="1" as="geometry">
            <mxPoint x="930" y="120" as="sourcePoint" />
            <mxPoint x="1351" y="211" as="targetPoint" />
          </mxGeometry>
        </mxCell>
        <mxCell id="3ZcGKBEtEyjRyk-508pL-134" value="" style="endArrow=classic;startArrow=classic;html=1;rounded=0;exitX=0.5;exitY=0;exitDx=0;exitDy=0;entryX=0.5;entryY=1;entryDx=0;entryDy=0;" edge="1" parent="1" target="3ZcGKBEtEyjRyk-508pL-120" source="p31LB3DIuPgvged_EPHS-26">
          <mxGeometry width="50" height="50" relative="1" as="geometry">
            <mxPoint x="1182" y="510" as="sourcePoint" />
            <mxPoint x="1070" y="377" as="targetPoint" />
          </mxGeometry>
        </mxCell>
        <mxCell id="3ZcGKBEtEyjRyk-508pL-135" value="Stream service" style="swimlane;fontStyle=2;align=center;verticalAlign=top;childLayout=stackLayout;horizontal=1;startSize=26;horizontalStack=0;resizeParent=1;resizeLast=0;collapsible=1;marginBottom=0;rounded=0;shadow=0;strokeWidth=1;" vertex="1" parent="1">
          <mxGeometry x="650" y="30" width="380" height="80" as="geometry">
            <mxRectangle x="200" y="60" width="160" height="26" as="alternateBounds" />
          </mxGeometry>
        </mxCell>
        <mxCell id="3ZcGKBEtEyjRyk-508pL-136" value="" style="line;html=1;strokeWidth=1;align=left;verticalAlign=middle;spacingTop=-1;spacingLeft=3;spacingRight=3;rotatable=0;labelPosition=right;points=[];portConstraint=eastwest;" vertex="1" parent="3ZcGKBEtEyjRyk-508pL-135">
          <mxGeometry y="26" width="380" height="20" as="geometry" />
        </mxCell>
        <mxCell id="3ZcGKBEtEyjRyk-508pL-137" value="+Preprocessing_Stream(List&lt;MediaStream&gt;,time:integer);bool" style="text;align=left;verticalAlign=top;spacingLeft=4;spacingRight=4;overflow=hidden;rotatable=0;points=[[0,0.5],[1,0.5]];portConstraint=eastwest;" vertex="1" parent="3ZcGKBEtEyjRyk-508pL-135">
          <mxGeometry y="46" width="380" height="20" as="geometry" />
        </mxCell>
        <mxCell id="3ZcGKBEtEyjRyk-508pL-138" value="«interface»&lt;br&gt;&lt;b&gt;streamRepoInterface&lt;/b&gt;" style="html=1;whiteSpace=wrap;" vertex="1" parent="1">
          <mxGeometry x="1654" y="100" width="136" height="50" as="geometry" />
        </mxCell>
        <mxCell id="3ZcGKBEtEyjRyk-508pL-139" value="" style="endArrow=block;dashed=1;endFill=0;endSize=12;html=1;rounded=0;entryX=0.5;entryY=0;entryDx=0;entryDy=0;exitX=1;exitY=-0.005;exitDx=0;exitDy=0;exitPerimeter=0;" edge="1" parent="1" source="3ZcGKBEtEyjRyk-508pL-123" target="3ZcGKBEtEyjRyk-508pL-138">
          <mxGeometry width="160" relative="1" as="geometry">
            <mxPoint x="1862" y="749" as="sourcePoint" />
            <mxPoint x="1945" y="650" as="targetPoint" />
          </mxGeometry>
        </mxCell>
        <mxCell id="3ZcGKBEtEyjRyk-508pL-140" value="«interface»&lt;br&gt;&lt;b&gt;IBaseContentRepository&amp;lt;T&amp;gt;&lt;/b&gt;" style="html=1;whiteSpace=wrap;" vertex="1" parent="1">
          <mxGeometry x="1655" y="1160" width="166" height="50" as="geometry" />
        </mxCell>
        <mxCell id="3ZcGKBEtEyjRyk-508pL-141" value="" style="endArrow=block;dashed=1;endFill=0;endSize=12;html=1;rounded=0;exitX=0.25;exitY=0;exitDx=0;exitDy=0;entryX=0.5;entryY=0;entryDx=0;entryDy=0;" edge="1" parent="1" source="3ZcGKBEtEyjRyk-508pL-140" target="3ZcGKBEtEyjRyk-508pL-92">
          <mxGeometry width="160" relative="1" as="geometry">
            <mxPoint x="1240" y="920" as="sourcePoint" />
            <mxPoint x="1400" y="920" as="targetPoint" />
          </mxGeometry>
        </mxCell>
        <mxCell id="3ZcGKBEtEyjRyk-508pL-142" value="" style="endArrow=block;dashed=1;endFill=0;endSize=12;html=1;rounded=0;exitX=0.5;exitY=0;exitDx=0;exitDy=0;" edge="1" parent="1" source="3ZcGKBEtEyjRyk-508pL-140" target="3ZcGKBEtEyjRyk-508pL-105">
          <mxGeometry width="160" relative="1" as="geometry">
            <mxPoint x="1240" y="920" as="sourcePoint" />
            <mxPoint x="1400" y="920" as="targetPoint" />
          </mxGeometry>
        </mxCell>
        <mxCell id="p31LB3DIuPgvged_EPHS-13" value="Message " style="swimlane;fontStyle=2;align=center;verticalAlign=top;childLayout=stackLayout;horizontal=1;startSize=26;horizontalStack=0;resizeParent=1;resizeLast=0;collapsible=1;marginBottom=0;rounded=0;shadow=0;strokeWidth=1;" vertex="1" parent="1">
          <mxGeometry x="1470" y="400" width="230" height="210" as="geometry">
            <mxRectangle x="200" y="60" width="160" height="26" as="alternateBounds" />
          </mxGeometry>
        </mxCell>
        <mxCell id="p31LB3DIuPgvged_EPHS-14" value="- messageID: integer" style="text;align=left;verticalAlign=top;spacingLeft=4;spacingRight=4;overflow=hidden;rotatable=0;points=[[0,0.5],[1,0.5]];portConstraint=eastwest;rounded=0;shadow=0;html=0;" vertex="1" parent="p31LB3DIuPgvged_EPHS-13">
          <mxGeometry y="26" width="230" height="26" as="geometry" />
        </mxCell>
        <mxCell id="p31LB3DIuPgvged_EPHS-15" value="- sender: User" style="text;align=left;verticalAlign=top;spacingLeft=4;spacingRight=4;overflow=hidden;rotatable=0;points=[[0,0.5],[1,0.5]];portConstraint=eastwest;" vertex="1" parent="p31LB3DIuPgvged_EPHS-13">
          <mxGeometry y="52" width="230" height="26" as="geometry" />
        </mxCell>
        <mxCell id="p31LB3DIuPgvged_EPHS-16" value="- content: string" style="text;align=left;verticalAlign=top;spacingLeft=4;spacingRight=4;overflow=hidden;rotatable=0;points=[[0,0.5],[1,0.5]];portConstraint=eastwest;" vertex="1" parent="p31LB3DIuPgvged_EPHS-13">
          <mxGeometry y="78" width="230" height="26" as="geometry" />
        </mxCell>
        <mxCell id="p31LB3DIuPgvged_EPHS-17" value="- timestamp: DateTime " style="text;align=left;verticalAlign=top;spacingLeft=4;spacingRight=4;overflow=hidden;rotatable=0;points=[[0,0.5],[1,0.5]];portConstraint=eastwest;" vertex="1" parent="p31LB3DIuPgvged_EPHS-13">
          <mxGeometry y="104" width="230" height="26" as="geometry" />
        </mxCell>
        <mxCell id="p31LB3DIuPgvged_EPHS-19" value="" style="line;html=1;strokeWidth=1;align=left;verticalAlign=middle;spacingTop=-1;spacingLeft=3;spacingRight=3;rotatable=0;labelPosition=right;points=[];portConstraint=eastwest;" vertex="1" parent="p31LB3DIuPgvged_EPHS-13">
          <mxGeometry y="130" width="230" height="20" as="geometry" />
        </mxCell>
        <mxCell id="p31LB3DIuPgvged_EPHS-20" value="- editContent(newContent: string)" style="text;align=left;verticalAlign=top;spacingLeft=4;spacingRight=4;overflow=hidden;rotatable=0;points=[[0,0.5],[1,0.5]];portConstraint=eastwest;" vertex="1" parent="p31LB3DIuPgvged_EPHS-13">
          <mxGeometry y="150" width="230" height="26" as="geometry" />
        </mxCell>
        <mxCell id="p31LB3DIuPgvged_EPHS-21" value="- delete()" style="text;align=left;verticalAlign=top;spacingLeft=4;spacingRight=4;overflow=hidden;rotatable=0;points=[[0,0.5],[1,0.5]];portConstraint=eastwest;" vertex="1" parent="p31LB3DIuPgvged_EPHS-13">
          <mxGeometry y="176" width="230" height="26" as="geometry" />
        </mxCell>
        <mxCell id="p31LB3DIuPgvged_EPHS-26" value="MediaStream" style="swimlane;fontStyle=2;align=center;verticalAlign=top;childLayout=stackLayout;horizontal=1;startSize=26;horizontalStack=0;resizeParent=1;resizeLast=0;collapsible=1;marginBottom=0;rounded=0;shadow=0;strokeWidth=1;" vertex="1" parent="1">
          <mxGeometry x="1150" y="290" width="230" height="270" as="geometry">
            <mxRectangle x="200" y="60" width="160" height="26" as="alternateBounds" />
          </mxGeometry>
        </mxCell>
        <mxCell id="p31LB3DIuPgvged_EPHS-27" value="- streamID:  integer" style="text;align=left;verticalAlign=top;spacingLeft=4;spacingRight=4;overflow=hidden;rotatable=0;points=[[0,0.5],[1,0.5]];portConstraint=eastwest;rounded=0;shadow=0;html=0;" vertex="1" parent="p31LB3DIuPgvged_EPHS-26">
          <mxGeometry y="26" width="230" height="26" as="geometry" />
        </mxCell>
        <mxCell id="p31LB3DIuPgvged_EPHS-28" value="- streamType: string" style="text;align=left;verticalAlign=top;spacingLeft=4;spacingRight=4;overflow=hidden;rotatable=0;points=[[0,0.5],[1,0.5]];portConstraint=eastwest;" vertex="1" parent="p31LB3DIuPgvged_EPHS-26">
          <mxGeometry y="52" width="230" height="26" as="geometry" />
        </mxCell>
        <mxCell id="p31LB3DIuPgvged_EPHS-29" value="- resolution: string" style="text;align=left;verticalAlign=top;spacingLeft=4;spacingRight=4;overflow=hidden;rotatable=0;points=[[0,0.5],[1,0.5]];portConstraint=eastwest;" vertex="1" parent="p31LB3DIuPgvged_EPHS-26">
          <mxGeometry y="78" width="230" height="26" as="geometry" />
        </mxCell>
        <mxCell id="p31LB3DIuPgvged_EPHS-30" value="- sender: User" style="text;align=left;verticalAlign=top;spacingLeft=4;spacingRight=4;overflow=hidden;rotatable=0;points=[[0,0.5],[1,0.5]];portConstraint=eastwest;" vertex="1" parent="p31LB3DIuPgvged_EPHS-26">
          <mxGeometry y="104" width="230" height="26" as="geometry" />
        </mxCell>
        <mxCell id="p31LB3DIuPgvged_EPHS-32" value="" style="line;html=1;strokeWidth=1;align=left;verticalAlign=middle;spacingTop=-1;spacingLeft=3;spacingRight=3;rotatable=0;labelPosition=right;points=[];portConstraint=eastwest;" vertex="1" parent="p31LB3DIuPgvged_EPHS-26">
          <mxGeometry y="130" width="230" height="20" as="geometry" />
        </mxCell>
        <mxCell id="p31LB3DIuPgvged_EPHS-33" value="- start()" style="text;align=left;verticalAlign=top;spacingLeft=4;spacingRight=4;overflow=hidden;rotatable=0;points=[[0,0.5],[1,0.5]];portConstraint=eastwest;" vertex="1" parent="p31LB3DIuPgvged_EPHS-26">
          <mxGeometry y="150" width="230" height="26" as="geometry" />
        </mxCell>
        <mxCell id="p31LB3DIuPgvged_EPHS-34" value="- stop()" style="text;align=left;verticalAlign=top;spacingLeft=4;spacingRight=4;overflow=hidden;rotatable=0;points=[[0,0.5],[1,0.5]];portConstraint=eastwest;" vertex="1" parent="p31LB3DIuPgvged_EPHS-26">
          <mxGeometry y="176" width="230" height="26" as="geometry" />
        </mxCell>
        <mxCell id="p31LB3DIuPgvged_EPHS-35" value="- pause()" style="text;align=left;verticalAlign=top;spacingLeft=4;spacingRight=4;overflow=hidden;rotatable=0;points=[[0,0.5],[1,0.5]];portConstraint=eastwest;" vertex="1" parent="p31LB3DIuPgvged_EPHS-26">
          <mxGeometry y="202" width="230" height="26" as="geometry" />
        </mxCell>
        <mxCell id="p31LB3DIuPgvged_EPHS-36" value="- resume()" style="text;align=left;verticalAlign=top;spacingLeft=4;spacingRight=4;overflow=hidden;rotatable=0;points=[[0,0.5],[1,0.5]];portConstraint=eastwest;" vertex="1" parent="p31LB3DIuPgvged_EPHS-26">
          <mxGeometry y="228" width="230" height="26" as="geometry" />
        </mxCell>
        <mxCell id="p31LB3DIuPgvged_EPHS-48" value="Moderator " style="swimlane;fontStyle=2;align=center;verticalAlign=top;childLayout=stackLayout;horizontal=1;startSize=26;horizontalStack=0;resizeParent=1;resizeLast=0;collapsible=1;marginBottom=0;rounded=0;shadow=0;strokeWidth=1;" vertex="1" parent="1">
          <mxGeometry x="-100" y="1060" width="230" height="190" as="geometry">
            <mxRectangle x="200" y="60" width="160" height="26" as="alternateBounds" />
          </mxGeometry>
        </mxCell>
        <mxCell id="p31LB3DIuPgvged_EPHS-49" value="- permissions: List&lt;string&gt;" style="text;align=left;verticalAlign=top;spacingLeft=4;spacingRight=4;overflow=hidden;rotatable=0;points=[[0,0.5],[1,0.5]];portConstraint=eastwest;rounded=0;shadow=0;html=0;" vertex="1" parent="p31LB3DIuPgvged_EPHS-48">
          <mxGeometry y="26" width="230" height="26" as="geometry" />
        </mxCell>
        <mxCell id="p31LB3DIuPgvged_EPHS-54" value="" style="line;html=1;strokeWidth=1;align=left;verticalAlign=middle;spacingTop=-1;spacingLeft=3;spacingRight=3;rotatable=0;labelPosition=right;points=[];portConstraint=eastwest;" vertex="1" parent="p31LB3DIuPgvged_EPHS-48">
          <mxGeometry y="52" width="230" height="20" as="geometry" />
        </mxCell>
        <mxCell id="p31LB3DIuPgvged_EPHS-55" value=" - muteUser(user: User)" style="text;align=left;verticalAlign=top;spacingLeft=4;spacingRight=4;overflow=hidden;rotatable=0;points=[[0,0.5],[1,0.5]];portConstraint=eastwest;" vertex="1" parent="p31LB3DIuPgvged_EPHS-48">
          <mxGeometry y="72" width="230" height="26" as="geometry" />
        </mxCell>
        <mxCell id="p31LB3DIuPgvged_EPHS-56" value="- kickUser(user: User)" style="text;align=left;verticalAlign=top;spacingLeft=4;spacingRight=4;overflow=hidden;rotatable=0;points=[[0,0.5],[1,0.5]];portConstraint=eastwest;" vertex="1" parent="p31LB3DIuPgvged_EPHS-48">
          <mxGeometry y="98" width="230" height="26" as="geometry" />
        </mxCell>
        <mxCell id="p31LB3DIuPgvged_EPHS-57" value="- startConference(conference: Conference)" style="text;align=left;verticalAlign=top;spacingLeft=4;spacingRight=4;overflow=hidden;rotatable=0;points=[[0,0.5],[1,0.5]];portConstraint=eastwest;" vertex="1" parent="p31LB3DIuPgvged_EPHS-48">
          <mxGeometry y="124" width="230" height="26" as="geometry" />
        </mxCell>
        <mxCell id="p31LB3DIuPgvged_EPHS-58" value="- endConference(conference: Conference)" style="text;align=left;verticalAlign=top;spacingLeft=4;spacingRight=4;overflow=hidden;rotatable=0;points=[[0,0.5],[1,0.5]];portConstraint=eastwest;" vertex="1" parent="p31LB3DIuPgvged_EPHS-48">
          <mxGeometry y="150" width="230" height="26" as="geometry" />
        </mxCell>
      </root>
    </mxGraphModel>
  </diagram>
  <diagram name="Страница — 2" id="Y7HvGzN05_d9YLyjzJ_C">
    <mxGraphModel dx="945" dy="1895" grid="0" gridSize="10" guides="1" tooltips="1" connect="1" arrows="1" fold="1" page="0" pageScale="1" pageWidth="827" pageHeight="1169" math="0" shadow="0">
      <root>
        <mxCell id="0" />
        <mxCell id="1" parent="0" />
      </root>
    </mxGraphModel>
  </diagram>
</mxfile>
